<svg class="luthieria" width="502" height="491" version="1.1" viewBox="160 5 502 491" xmlns="http://www.w3.org/2000/svg" xmlns:xlink="http://www.w3.org/1999/xlink">
 <text fill="#d40000" opacity=".55112"/>
 <g fill="#fff" stroke-width="1.1943">
  <path d="m377.06 493.82-212.41-0.63051-0.42555-114.96h167.68l0.42555 29.212-133 0.42032-1.2766 12.61 133.95-0.84064 0.85114 30.894-134.19 0.21016-0.42557 13.45 135.15-0.6305s31.278 0.4526 58.705-5.6882c1.7022-0.38619 1.7022-0.27895 3.4044-0.72233 0 0 2.9789-0.41999 9.4047-2.9025 19.448-7.3361 60.428-32.295 72.786-113.42 0 0 14.937-199.9-18.171-250.58 0 0-23.958-41.772-82.659-50.168-19.192-2.7431-21.065-2.6023-36.385-3.7088l-76.012-0.85721 0.14487 88.975-36.427 0.4446-0.42555-89.712-63.705-0.36587 0.20855-28.902 249 2.5609c284.64-4.3059 242.86 278.53 242.86 278.53-17.405 177.19-149.75 199.48-231.87 204.77-27.235 1.7555-46.657 2.0048-46.657 2.0048z" style="paint-order:normal"/>
  <path d="m164.63 130.69 32.087-0.34183 0.85109 87.507 91.425 0.34184c8.1706-0.68368 7.0216-10.084 7.0216-10.084v-77.423l32.469-0.17094 1.2767 89.558c2.1277 25.978-28.597 26.321-28.597 26.321h-108.55c-31.703-1.0255-28.001-25.124-28.001-25.124z"/>
  <path d="m165.4 253.93 31.491-0.1709 99.404 75.372-0.8511-75.202s33.661 0.17094 32.895 0.17094c-0.8511 0 0.19164 116.74 0.19164 116.74h-30.342l-100.18-76.569-0.8511 76.74-32.299 0.17091z"/>
 </g>
 <text fill="#fefefe" fill-opacity=".96471" stroke="#bd0000" stroke-linecap="square" stroke-linejoin="round" stroke-width="2" style="paint-order:normal;white-space:pre" xml:space="preserve"/>
 <text transform="translate(160,5)" fill="#000000" style="shape-inside:url(#rect15);white-space:pre" xml:space="preserve"/>
 <text transform="translate(160,5)" fill="#000000" style="shape-inside:url(#rect16);white-space:pre" xml:space="preserve"/>
</svg>
